<svg xmlns="http://www.w3.org/2000/svg" viewBox="0 0 120 48" role="img" aria-label="Apple Pay">
  <rect x="1.5" y="1.5" width="117" height="45" rx="9" fill="#ffffff" stroke="#000000" stroke-width="3"/>
  <g transform="translate(33 13)" fill="#000000">
    <path d="M9.6 3.3c.55-.68.92-1.6.82-2.55-.79.04-1.76.53-2.33 1.2-.51.6-.96 1.55-.84 2.46.88.07 1.78-.45 2.35-1.11Z"/>
    <path d="M10.4 4.6c-1.28-.08-2.37.73-2.98.73-.61 0-1.55-.69-2.56-.67-1.32.02-2.53.76-3.21 1.94-1.37 2.38-.35 5.9 1 7.84.65.95 1.43 2.01 2.45 1.97.98-.04 1.36-.63 2.54-.63 1.18 0 1.52.63 2.56.61 1.06-.02 1.73-.96 2.38-1.92.74-1.1 1.05-2.16 1.07-2.21-.02-.01-2.06-.79-2.08-3.14-.02-1.96 1.6-2.9 1.68-2.95-.92-1.35-2.34-1.5-2.84-1.53l-.01.01Z"/>
  </g>
  <text x="53" y="31" font-family="Arial, Helvetica, sans-serif" font-size="22" font-weight="600" fill="#000000">Pay</text>
</svg>
