<svg xmlns="http://www.w3.org/2000/svg" viewBox="0 0 120 48" role="img" aria-label="Google Pay">
  <rect x="1.5" y="1.5" width="117" height="45" rx="22.5" fill="#ffffff" stroke="#3c4043" stroke-width="2.5"/>
  <g transform="translate(34 14)">
    <path d="M9.5 8.18c0-.5-.04-.98-.13-1.45H4.85v2.74h2.62a2.24 2.24 0 0 1-.97 1.47v1.22h1.57c.92-.85 1.43-2.1 1.43-3.58Z" fill="#4285f4"/>
    <path d="M4.85 13.1c1.31 0 2.41-.43 3.21-1.17l-1.57-1.21c-.43.29-.99.46-1.64.46-1.26 0-2.33-.85-2.71-2h-1.62v1.25a4.85 4.85 0 0 0 4.33 2.67Z" fill="#34a853"/>
    <path d="M2.14 8.94a2.9 2.9 0 0 1 0-1.86V5.83H.52a4.86 4.86 0 0 0 0 4.36l1.62-1.25Z" fill="#fbbc04"/>
    <path d="M4.85 5.08c.71 0 1.35.24 1.85.72l1.39-1.39a4.67 4.67 0 0 0-3.24-1.26 4.85 4.85 0 0 0-4.33 2.68l1.62 1.25c.38-1.15 1.45-2 2.71-2Z" fill="#ea4335"/>
  </g>
  <text x="55" y="31" font-family="Arial, Helvetica, sans-serif" font-size="22" font-weight="500" fill="#5f6368">Pay</text>
</svg>
